:FULLY-SPECIFIED
:FORCE-ALL-JOINTS-BE-3DOF
:DEGREES
114
root 9.24624 16.1048 -21.3208 4.92473 3.45526 5.48181
lfemur 13.6523 0.753967 -28.8335
ltibia 1.23912 0 0
lfoot -16.9828 0.939114 0
ltoes -4.77021 0 0
rfemur -40.8994 9.8758 5.96017
rtibia 34.1378 0 0
rfoot -23.9161 -14.3841 0
rtoes -19.567 0 0
lowerback -7.91071 -3.47846 -6.52874
upperback -1.21698 -4.14611 2.06304
thorax 3.77853 -2.16499 5.32464
lowerneck -20.1798 -4.956 -12.8467
upperneck 21.4689 -5.71736 10.9415
head 10.9643 -2.3689 5.26672
lclavicle -4.29261e-14 -1.64713e-14 0
lhumerus -27.3985 -24.6782 94.4778
lradius 39.0629 0 0
lwrist 9.39624 0 0
lhand -11.9922 -24.5796 0
lfingers 7.12502 0 0
lthumb 14.0681 4.96821 0
rclavicle -4.29261e-14 -1.64713e-14 0
rhumerus -46.5348 7.9401 -84.0976
rradius 34.4579 0 0
rwrist -18.7293 0 0
rhand -30.0052 -22.7735 0
rfingers 7.12502 0 0
rthumb -3.32241 -52.7275 0
115
root 9.24375 16.0958 -21.1918 4.97735 3.80642 5.50308
lfemur 14.309 0.756676 -28.7509
ltibia 0.742253 0 0
lfoot -16.8739 0.734032 0
ltoes -4.93862 0 0
rfemur -41.154 10.121 5.71512
rtibia 33.0315 0 0
rfoot -24.011 -14.3099 0
rtoes -19.8837 0 0
lowerback -7.998 -3.52796 -6.55098
upperback -1.2091 -4.20663 2.0608
thorax 3.84573 -2.19731 5.32575
lowerneck -20.1019 -4.99897 -12.8936
upperneck 21.4725 -5.7713 10.9402
head 10.9608 -2.40008 5.26559
lclavicle -4.35853e-14 -1.71043e-14 0
lhumerus -27.5747 -24.9499 94.7323
lradius 39.358 0 0
lwrist 9.58922 0 0
lhand -11.9268 -24.5766 0
lfingers 7.12502 0 0
lthumb 14.1307 4.96222 0
rclavicle -4.35853e-14 -1.71043e-14 0
rhumerus -46.6179 7.79749 -83.9584
rradius 34.3604 0 0
rwrist -18.6615 0 0
rhand -29.9773 -22.8268 0
rfingers 7.12502 0 0
rthumb -3.29549 -52.7812 0
116
root 9.24125 16.0867 -21.0627 5.02964 4.14639 5.5181
lfemur 14.9177 0.765396 -28.6603
ltibia 0.316309 0 0
lfoot -16.7546 0.549227 0
ltoes -5.1066 0 0
rfemur -41.3871 10.347 5.49685
rtibia 31.9759 0 0
rfoot -24.0928 -14.2265 0
rtoes -20.1806 0 0
lowerback -8.07815 -3.57367 -6.56702
upperback -1.20197 -4.26276 2.05983
thorax 3.9073 -2.22726 5.3254
lowerneck -20.0263 -5.04186 -12.9398
upperneck 21.4701 -5.82534 10.9422
head 10.9557 -2.43083 5.26535
lclavicle -4.41981e-14 -1.76707e-14 0
lhumerus -27.7574 -25.199 94.977
lradius 39.6288 0 0
lwrist 9.76895 0 0
lhand -11.8557 -24.5688 0
lfingers 7.12502 0 0
lthumb 14.1988 4.96052 0
rclavicle -4.41981e-14 -1.76707e-14 0
rhumerus -46.6958 7.66266 -83.8233
rradius 34.2669 0 0
rwrist -18.5969 0 0
rhand -29.9492 -22.8804 0
rfingers 7.12502 0 0
rthumb -3.2684 -52.8352 0
117
root 9.23876 16.0777 -20.9337 5.08143 4.47416 5.52673
lfemur 15.4757 0.780301 -28.5617
ltibia -0.0342284 0 0
lfoot -16.6248 0.386179 0
ltoes -5.27387 0 0
rfemur -41.5986 10.5524 5.30694
rtibia 30.9769 0 0
rfoot -24.1611 -14.1339 0
rtoes -20.4556 0 0
lowerback -8.15053 -3.61537 -6.57664
upperback -1.19567 -4.31425 2.06016
thorax 3.96276 -2.2547 5.32353
lowerneck -19.9533 -5.08461 -12.9852
upperneck 21.4615 -5.87942 10.9474
head 10.9492 -2.46108 5.266
lclavicle -4.47606e-14 -1.81646e-14 0
lhumerus -27.9465 -25.4238 95.211
lradius 39.8736 0 0
lwrist 9.9345 0 0
lhand -11.7789 -24.5562 0
lfingers 7.12502 0 0
lthumb 14.2724 4.96326 0
rclavicle -4.47606e-14 -1.81646e-14 0
rhumerus -46.7682 7.53607 -83.6926
rradius 34.1775 0 0
rwrist -18.5355 0 0
rhand -29.921 -22.934 0
rfingers 7.12502 0 0
rthumb -3.24115 -52.8892 0
118
root 9.23626 16.0687 -20.8046 5.13254 4.78874 5.52882
lfemur 15.9803 0.801569 -28.4551
ltibia -0.304876 0 0
lfoot -16.4846 0.246368 0
ltoes -5.44011 0 0
rfemur -41.7884 10.7356 5.14698
rtibia 30.0404 0 0
rfoot -24.2153 -14.032 0
rtoes -20.7067 0 0
lowerback -8.21454 -3.65284 -6.57963
upperback -1.19024 -4.36086 2.06184
thorax 4.01166 -2.27949 5.32013
lowerneck -19.8831 -5.12715 -13.0295
upperneck 21.4465 -5.93342 10.9561
head 10.941 -2.49077 5.26759
lclavicle -4.52692e-14 -1.85799e-14 0
lhumerus -28.1417 -25.6229 95.4334
lradius 40.0907 0 0
lwrist 10.0849 0 0
lhand -11.6967 -24.5386 0
lfingers 7.12502 0 0
lthumb 14.3512 4.97062 0
rclavicle -4.52692e-14 -1.85799e-14 0
rhumerus -46.8345 7.41816 -83.5665
rradius 34.092 0 0
rwrist -18.4775 0 0
rhand -29.8927 -22.9871 0
rfingers 7.12502 0 0
rthumb -3.21375 -52.9428 0
119
root 9.23377 16.0596 -20.6756 5.1828 5.08909 5.52424
lfemur 16.4286 0.829373 -28.3405
ltibia -0.49115 0 0
lfoot -16.3339 0.131273 0
ltoes -5.60505 0 0
rfemur -41.956 10.8951 5.01854
rtibia 29.1722 0 0
rfoot -24.2552 -13.9209 0
rtoes -20.9319 0 0
lowerback -8.26956 -3.68588 -6.57578
upperback -1.18575 -4.40232 2.06489
thorax 4.05353 -2.30149 5.31514
lowerneck -19.8161 -5.1694 -13.0728
upperneck 21.4248 -5.98729 10.9683
head 10.9313 -2.51982 5.27015
lclavicle -4.572e-14 -1.89105e-14 0
lhumerus -28.3426 -25.7949 95.643
lradius 40.2785 0 0
lwrist 10.2193 0 0
lhand -11.6093 -24.5159 0
lfingers 7.12502 0 0
lthumb 14.4351 4.98276 0
rclavicle -4.572e-14 -1.89105e-14 0
rhumerus -46.8943 7.30938 -83.4452
rradius 34.0104 0 0
rwrist -18.423 0 0
rhand -29.8642 -23.0396 0
rfingers 7.12502 0 0
rthumb -3.18623 -52.9956 0
